<?xml version="1.0" encoding="UTF-8" standalone="no"?>
<svg
   xmlns:dc="http://purl.org/dc/elements/1.1/"
   xmlns:cc="http://creativecommons.org/ns#"
   xmlns:rdf="http://www.w3.org/1999/02/22-rdf-syntax-ns#"
   xmlns:svg="http://www.w3.org/2000/svg"
   xmlns="http://www.w3.org/2000/svg"
   viewBox="0 0 621.33331 270.66666"
   height="270.66666"
   width="621.33331"
   xml:space="preserve"
   id="svg2"
   version="1.1"><metadata
     id="metadata8"><rdf:RDF><cc:Work
         rdf:about=""><dc:format>image/svg+xml</dc:format><dc:type
           rdf:resource="http://purl.org/dc/dcmitype/StillImage" /></cc:Work></rdf:RDF></metadata><defs
     id="defs6" /><g
     transform="matrix(1.3333333,0,0,-1.3333333,0,270.66667)"
     id="g10"><g
       transform="scale(0.1)"
       id="g12"><path
         id="path14"
         style="fill:#1a6735;fill-opacity:1;fill-rule:evenodd;stroke:none"
         d="m 3739.18,1006.68 c -5,21.37 -16.99,37.19 -35.98,47.5 -3.67,1.37 -6.17,1.02 -7.5,-0.98 -7.34,-8.36 -16.32,-11.68 -26.99,-10 -5.35,-1.68 -9.18,0.51 -11.52,6.49 0,5.35 2.65,8.01 8.01,8.01 5,0.35 7.85,2.5 8.51,6.48 -0.66,5 -3.67,7.7 -9.02,8.01 -8.99,3.01 -10.98,8.51 -5.98,16.52 2.97,1.64 3.63,3.83 1.99,6.49 -2.65,2.65 -5.66,3 -9.02,1.01 -7.66,-4.69 -15.82,-5.66 -24.49,-3.01 3.36,5.32 4.84,10 4.49,13.99 -0.66,4.02 -3.63,12.19 -8.98,24.49 7.65,-3.63 15,-3.32 21.99,1.02 6.33,3.67 12.19,2.85 17.5,-2.5 4.33,-2 12.5,-2.5 24.49,-1.49 12.03,0.98 19.69,2.81 23.01,5.47 1.01,2.7 1.33,5.86 1.01,9.53 -1.68,22.66 -7.65,43.63 -18,62.97 -14.65,21.02 -35,33.36 -61.02,37.03 -10,2.31 -14.65,-2.5 -13.98,-14.53 0.35,-0.98 0.5,-1.99 0.5,-2.97 0,0 0,-0.19 0,-0.51 0.32,-0.66 0.32,-1.17 0,-1.52 0.32,-0.31 0.32,-0.66 0,-0.98 0,-0.35 0,-0.66 0,-1.01 0,-0.31 -0.15,-0.51 -0.5,-0.51 0,-0.31 -0.16,-0.47 -0.51,-0.47 0,-0.35 -0.16,-0.51 -0.51,-0.51 0,0 -0.16,0 -0.47,0 -0.35,-0.35 -0.66,-0.5 -1.01,-0.5 -0.36,0.35 -0.82,0.5 -1.49,0.5 -0.35,0 -0.66,0 -1.01,0 -0.67,0 -1.33,0 -2,0 -0.35,0.32 -0.86,0.51 -1.52,0.51 -0.98,0.31 -1.99,0.67 -2.97,0.98 -12.03,3.67 -16.83,10.35 -14.53,20 -0.98,6.68 -4.34,10.51 -10,11.52 -5.66,1.99 -10,0.67 -12.97,-4.02 -7.34,-9.34 -13.36,-9.14 -18.01,0.51 -3,10 -9.49,13.51 -19.49,10.5 -2.69,-0.35 -4.69,1.18 -6.01,4.5 -0.67,3 0.5,4.84 3.51,5.5 6.99,5.32 13.99,10.51 20.98,15.51 6.33,1.99 7.19,5.47 2.5,10.47 -3.01,2.7 -3.32,5.51 -0.98,8.52 3.32,3.67 7.31,4.84 11.99,3.51 8.01,-4.02 14.65,-2.69 20,3.99 8.99,5 17.82,5.5 26.49,1.48 9.69,-1.33 15,2.03 16.01,10 -0.66,8.01 -5,11.52 -13,10.51 -8.68,-3.67 -11.49,-1.17 -8.52,7.5 0.35,3.01 -1.64,5.15 -5.98,6.52 -5.66,-0.66 -8.82,2.5 -9.49,9.49 0.31,7.66 3.99,12.15 10.98,13.48 11.01,2.03 14.49,8.16 10.51,18.52 -1.02,9.33 -6.33,11.48 -16.02,6.48 -10.31,-11.33 -22.97,-13.63 -37.97,-6.99 -1.37,6.01 -3.51,10.66 -6.52,14.02 -13.67,-4.02 -24.65,-6.01 -33.01,-6.01 -1.64,-1.68 -3.98,-6.49 -6.99,-14.5 -2.66,-1.32 -5.98,-3 -10,-5 -3.99,-1.68 -3.48,-5.66 1.52,-11.99 0.31,-1.68 -1.52,-2.85 -5.51,-3.51 -7.34,-2 -8.82,-6.02 -4.49,-12 2.66,-3 2.5,-5.15 -0.51,-6.52 -3.36,-0.66 -5.15,0.86 -5.5,4.53 -3.32,17.66 -13.83,24.34 -31.49,20 -10,-2.34 -16.37,1.13 -19.02,10.47 0.66,10.35 6.17,14.69 16.52,13.01 7.97,1.33 15.98,2.85 23.99,4.49 8,1.02 9.64,5.86 5,14.53 -8.68,11.99 -20,15.82 -33.99,11.49 -8.36,-2 -16.52,-2.15 -24.53,-0.51 -5.98,1.01 -9.65,3.83 -10.98,8.51 0.67,4.34 3.68,7.82 8.99,10.51 7.65,-0.66 12.5,1.64 14.49,6.99 -2.66,7 -8.16,9.65 -16.48,8.01 -3.68,1.64 -7.15,3.17 -10.51,4.49 -6.33,2 -11.84,-0.15 -16.49,-6.52 -11.32,-11.64 -21.01,-9.65 -29.02,6.02 -6.64,11.99 -14.8,13.16 -24.49,3.51 -3.99,-6.01 -8.17,-6.68 -12.5,-2.03 -8.99,8.01 -18.48,7.7 -28.48,-0.98 -8.01,-7.65 -17.69,-10.66 -29.02,-9.02 -11.33,1.68 -21.84,-0.31 -31.49,-5.98 -6.01,-3 -12.34,-4.33 -19.02,-4.02 -4.34,1.37 -7.5,0 -9.49,-3.98 -3.67,-12.66 -11.99,-17.15 -25,-13.52 -1.64,-0.31 -3.01,-0.98 -3.99,-1.99 -3,-11.64 -10,-20.31 -21.01,-25.98 -7.35,-10.35 -15.98,-11.37 -25.98,-3.01 -6.01,6.33 -13.36,8.68 -22.03,7 -3.32,-1.02 -5.66,-2.15 -6.99,-3.52 -1.99,-9.34 -5.98,-18.16 -11.99,-26.48 -6.33,-8.32 -7.15,-17.5 -2.5,-27.5 1.01,-11.02 8.82,-18.68 23.51,-23.01 21.99,0 42.15,-6.99 60.47,-20.98 2.03,-2.03 4.34,-3.36 7.03,-4.02 7.31,1.01 11.64,-1.99 12.97,-8.99 -0.66,-7.65 -3.98,-14.33 -10,-20 -6.33,-3.36 -11.48,-2.34 -15.47,3.01 -8.67,6.33 -18.16,11.99 -28.51,16.99 -10.36,4.34 -18.17,2.15 -23.52,-6.52 -5.98,-11.99 -15.47,-18.48 -28.48,-19.49 -17.65,-1.33 -29.33,-8.48 -35,-21.49 -11.99,-13.36 -24.49,-26.01 -37.5,-38 -3.36,-11.02 -3.16,-21.02 0.51,-30 1.99,-4.34 5.16,-5.51 9.49,-3.52 17.35,5.66 35.16,7.19 53.48,4.53 13.36,0.31 25.2,3.32 35.51,8.99 10.35,5.66 20.35,6.01 30,1.01 7.34,-2.69 9.02,-6.83 5,-12.5 -6.99,-9.02 -14.65,-17.5 -23.01,-25.51 -3.32,-1.68 -6.84,-1.52 -10.47,0.51 -12.34,4.65 -23.01,1.99 -32.03,-8.01 -3.32,-4.33 -7.3,-5.15 -11.99,-2.5 -18.99,6.64 -38.48,7.82 -58.48,3.48 -0.66,-0.31 -1.17,-0.47 -1.52,-0.47 -20,6.99 -37.35,2.81 -51.99,-12.5 v -10 c 16.32,-0.35 23.51,-8.67 21.48,-25 -0.66,-3.36 0.51,-5.66 3.52,-7.03 12.65,-17.97 30,-24.49 51.99,-19.49 11.99,1.99 23.83,-0.16 35.51,-6.49 6.99,-3.67 8.98,-9.68 6.01,-18 -1.68,-9.65 -7.34,-14.34 -17.03,-13.99 -13.63,5 -25.98,2.15 -36.99,-8.51 -7.66,-1.68 -16.49,-3.17 -26.49,-4.5 -7.65,-1.01 -11.32,-5.35 -11.01,-13.001 3.67,-7.66 9.33,-10.508 16.99,-8.519 22.03,4.019 41.17,-1.129 57.5,-15.469 8.01,-1.012 15.2,-4.18 21.52,-9.531 3.68,-4.649 3.68,-7.969 0,-10 -4.68,-2.66 -6.68,-5.981 -6.01,-10 0.66,-8.981 -3.32,-15.981 -11.99,-20.981 -1.33,-1.008 -0.36,-4.328 3,-10 3.01,-5.66 5.98,-8.508 8.99,-8.508 9.33,0.661 18.01,0.508 26.01,-0.511 8.99,0 16.49,3.672 22.5,11.019 3.68,6.012 8.99,8.512 15.98,7.5 16.02,0 32.34,1.321 49.02,3.981 14.65,2.34 29.14,8.871 43.48,19.531 4.69,4.648 9.84,5.16 15.51,1.488 4.33,-2.66 8.83,-2 13.51,1.992 6.33,3.668 13.17,4.329 20.51,1.989 3.99,-1.328 7.31,-2.809 10,-4.489 1.33,-3.32 2.15,-8.48 2.5,-15.511 0,-22.66 0.16,-44.649 0.47,-65.981 1.37,-22.648 -8.98,-38.16 -30.98,-46.519 -3.36,-0.309 -5.66,-2.5 -6.99,-6.481 6.64,-3.679 13.63,-4.179 20.98,-1.488 6.99,1.328 14.02,-0.66 21.01,-6.012 11.64,-5.668 23.68,-5 35.98,1.992 17.03,6.008 35.2,9.688 54.53,11.008 -5.35,6.332 -11.37,8.481 -18.01,6.492 -20.66,1.989 -31.52,12.848 -32.5,32.5 -1.99,23.668 -1.68,47.34 0.98,71.008 0,0.672 0,1.492 0,2.5 0.35,0.981 0.51,2 0.51,3.012 0.66,0.309 1.17,0.469 1.52,0.469 0.98,-0.309 1.84,-0.469 2.5,-0.469 0.98,0.98 2.5,1.488 4.49,1.488 7,2.34 11.84,0.5 14.5,-5.508 0.66,-4.652 2.5,-5.82 5.5,-3.48 3.68,2.969 7,2.809 10,-0.512 3.01,-10 9.5,-13.16 19.5,-9.488 2.65,0 3.98,-1.371 3.98,-4.02 -2.66,-11.332 1.37,-14.851 12.03,-10.511 3.32,0 6.49,-0.66 9.49,-1.989 18.01,-8.992 34.34,-5.511 48.99,10.508 3.01,1.992 5.86,2.5 8.51,1.481 4.65,-0.66 7.15,0.66 7.5,4.019 -0.35,12.352 5,15.981 15.98,10.981 21.37,-3.629 42.19,-4.489 62.5,-2.5 16.02,-2.301 30.66,1.519 44.02,11.519 6.33,5.321 8.68,12.153 7,20.512 -3.99,6.988 -9.65,10 -17,8.988 -4.02,1.012 -8.16,2.34 -12.5,3.981 14.34,8.011 29.85,11.84 46.49,11.519 5.35,-0.66 9.84,-3.359 13.51,-8 7.35,-13.008 14.14,-12.859 20.51,0.5 4.65,4.34 9.65,5 15,2 17.97,-3.32 34.14,1.012 48.48,13 6.33,5.321 8.67,11.492 6.99,18.481" /><path
         id="path16"
         style="fill:#1a6735;fill-opacity:1;fill-rule:evenodd;stroke:none"
         d="m 1650.2,1136.21 c -0.36,0 -0.82,0.16 -1.49,0.47 -20,4.34 -39.69,3.16 -59.02,-3.48 -4.34,-2.65 -8.17,-1.83 -11.49,2.5 -9.02,10 -19.84,12.66 -32.5,8.01 -3.36,-2.03 -6.83,-2.19 -10.5,-0.51 -8.01,8.01 -15.51,16.49 -22.5,25.51 -3.99,5.67 -2.35,9.81 5,12.5 9.33,5 19.33,4.65 30,-1.01 10.35,-5.67 21.99,-8.68 35,-8.99 18.67,2.66 36.68,1.13 53.98,-4.53 4.34,-1.99 7.5,-0.82 9.53,3.52 3.63,8.98 3.83,18.98 0.47,30 -12.97,11.99 -25.66,24.64 -37.97,38 -5.35,13.01 -17.03,20.16 -35,21.49 -12.69,1.01 -22.03,7.5 -28.01,19.49 -5.35,8.67 -13.36,10.86 -24.02,6.52 -10,-5 -19.34,-10.66 -27.97,-16.99 -4.02,-5.35 -9.18,-6.37 -15.51,-3.01 -6.01,5.67 -9.33,12.35 -10,20 1.33,7 5.67,10 13.01,8.99 2.31,0.66 4.65,1.99 6.99,4.02 18.32,13.99 38.48,20.98 60.51,20.98 14.65,4.33 22.5,11.99 23.48,23.01 4.69,10 3.83,19.18 -2.5,27.5 -6.33,8.32 -10.51,17.14 -12.5,26.48 -0.98,1.37 -3.17,2.5 -6.49,3.52 -8.67,1.68 -16.17,-0.67 -22.5,-7 -9.68,-8 -18.36,-6.99 -26.01,3.01 -10.67,5.67 -17.5,14.34 -20.51,25.98 -0.98,1.01 -2.3,1.68 -3.98,1.99 -13.01,-3.63 -21.33,0.86 -25,13.52 -2.35,3.98 -5.51,5.35 -9.5,3.98 -6.68,-0.31 -13,1.02 -19.02,4.02 -9.65,5.67 -20.16,7.66 -31.48,5.98 -11.68,-1.33 -21.33,1.68 -28.99,9.02 -10,8.68 -19.69,8.99 -29.02,0.98 -4.34,-4.65 -8.32,-3.98 -11.99,2.03 -9.65,9.65 -17.86,8.48 -24.5,-3.51 -8,-15.67 -17.65,-17.66 -29.02,-6.02 -5,6.37 -10.47,8.52 -16.48,6.52 -3.68,-1.32 -7.15,-2.85 -10.51,-4.49 -8.67,1.64 -14.14,-1.01 -16.49,-8.01 2,-5.35 6.64,-7.65 13.99,-6.99 5.66,-2.69 8.67,-6.17 9.02,-10.51 -1.37,-4.68 -4.84,-7.5 -10.51,-8.51 -8.36,-1.64 -16.52,-1.49 -24.49,0.51 -14.02,4.64 -25.35,0.82 -34.02,-11.49 -4.65,-8.67 -3.01,-13.51 5,-14.53 8.01,-1.64 15.86,-3.16 23.51,-4.49 10.67,1.33 16.18,-3.01 16.49,-13.01 -2.35,-9.34 -8.48,-12.81 -18.48,-10.47 -17.69,4.34 -28.16,-2.34 -31.52,-20 -0.31,-3.67 -2.15,-5.19 -5.51,-4.53 -2.97,1.37 -3.32,3.52 -0.98,6.52 4.65,5.98 3.32,10 -4.02,12 -4.34,0.66 -6.33,1.83 -5.98,3.51 5.32,6.33 5.98,10.31 2,11.99 -3.99,2 -7.5,3.68 -10.51,5 -2.66,8.01 -4.85,12.82 -6.49,14.5 -8.67,0 -19.68,1.99 -33,6.01 -3.01,-3.36 -5.36,-8.01 -7,-14.02 -14.68,-6.64 -27.34,-4.34 -38,6.99 -9.34,5 -14.5,2.85 -15.51,-6.48 -3.99,-10.36 -0.51,-16.49 10.51,-18.52 6.99,-1.33 10.5,-5.82 10.5,-13.48 -0.35,-7.34 -3.36,-10.5 -9.02,-9.49 -4.34,-1.37 -6.33,-3.51 -5.98,-6.52 2.66,-8.67 -0.15,-11.17 -8.51,-7.5 -8.32,1.01 -12.66,-2.5 -13.01,-10.51 0.66,-7.66 5.86,-10.98 15.51,-10 9.02,4.02 17.85,3.52 26.52,-1.48 5.67,-6.68 12.5,-8.01 20.47,-3.99 4.69,1.64 8.52,0.47 11.52,-3.51 2.66,-3.01 2.35,-5.82 -1.01,-8.52 -4.34,-5 -3.32,-8.48 3.01,-10.47 6.99,-5 13.98,-10.19 21.01,-15.51 2.97,-0.66 4.14,-2.65 3.48,-6.01 -1.33,-3.01 -3.48,-4.34 -6.49,-3.99 -9.68,3.01 -16.01,-0.5 -19.02,-10.5 -5,-9.65 -10.98,-9.85 -17.97,-0.51 -3.36,4.69 -7.69,6.01 -13.01,4.02 -6.01,-1.01 -9.33,-4.84 -10,-11.52 2.35,-9.65 -2.5,-16.33 -14.49,-20 -1.37,-0.31 -2.34,-0.67 -3.01,-0.98 -0.66,0 -1.32,-0.19 -1.99,-0.51 -0.35,0 -0.86,0 -1.52,0 -0.31,0 -0.82,0 -1.49,0 -0.35,-0.35 -0.66,-0.5 -1.01,-0.5 -0.31,0.35 -0.67,0.5 -0.98,0.5 -0.35,0 -0.51,0 -0.51,0 -0.35,0 -0.66,0.16 -1.01,0.51 0,0 0,0.16 0,0.47 -0.31,0 -0.51,0.2 -0.51,0.51 0,0.35 -0.16,0.66 -0.47,1.01 0,0.32 0,0.67 0,0.98 0,0.35 0,0.66 0,1.02 0,0.35 0.16,0.66 0.47,1.01 0,0.98 0,1.99 0,2.97 1.02,12.03 -3.48,16.84 -13.48,14.53 -26.32,-4.02 -46.68,-16.37 -61.009,-37.03 -10.671,-19.34 -16.64,-40.31 -18.011,-62.97 -0.309,-3.67 0,-6.83 1.019,-9.53 3,-2.66 10.66,-4.49 23,-5.47 12,-1.01 20,-0.51 23.992,1.49 5.659,5.35 11.679,6.17 18.009,2.5 6.68,-4.34 13.98,-4.65 21.99,-1.02 -5.67,-12.3 -8.67,-20.47 -8.99,-24.49 -0.66,-3.99 0.67,-8.67 3.99,-13.99 -8.32,-3 -16.33,-1.99 -23.99,3.01 -3.36,1.99 -6.32,1.64 -9.02,-1.01 -1.989,-2.66 -1.328,-4.85 2.03,-6.49 5,-8.01 2.81,-13.51 -6.519,-16.52 -5,-0.31 -7.812,-3.01 -8.48,-8.01 0.668,-4.34 3.48,-6.48 8.48,-6.48 5.349,0.35 7.849,-2.35 7.499,-8.01 -1.99,-5.98 -5.67,-8.17 -10.979,-6.49 -11.012,-1.68 -20,1.64 -27.031,10 -1.641,2 -4.141,2.35 -7.5,0.98 -19.34,-10.31 -31.328,-26.13 -35.981,-47.5 -1.679,-6.989 0.672,-13.16 7,-18.481 13.981,-11.988 30.153,-16.32 48.512,-13 5.309,3 10.309,2.34 15,-2 6.328,-13.359 13.169,-13.508 20.469,-0.5 3.67,4.641 8.16,7.34 13.52,8 16.32,0.321 31.83,-3.508 46.48,-11.519 -4.34,-1.989 -8.48,-3.321 -12.5,-3.981 -7.3,1.012 -12.97,-2 -16.99,-8.988 -1.64,-8.359 0.51,-15.191 6.52,-20.512 13.63,-10 28.48,-14.019 44.49,-11.988 20.32,-1.68 41.18,-0.66 62.5,2.969 10.98,5 16.33,1.371 15.98,-10.981 0.35,-3.359 2.7,-4.679 7.03,-4.019 2.97,1.019 5.98,0.511 8.99,-1.481 14.33,-16.019 30.66,-19.5 48.98,-10.508 3.01,1.329 6.17,1.989 9.53,1.989 10.67,-4.34 14.49,-0.821 11.49,10.511 0.35,2.649 1.83,4.02 4.49,4.02 10,-4.02 16.52,-0.859 19.49,9.488 2.7,3.321 5.86,3.481 9.53,0.512 3.32,-2.34 5.31,-1.172 5.98,3.48 2.65,6.008 7.5,7.848 14.49,5.508 1.68,0 3.01,-0.508 4.02,-1.488 0.98,0 2,0.16 3.01,0.469 0.31,-0.309 0.67,-0.469 0.98,-0.469 0.35,-1.012 0.66,-2.031 1.01,-3.012 0,-1.008 0,-1.828 0,-2.5 2.66,-23.668 3.01,-47.34 0.98,-71.008 -0.98,-19.652 -11.84,-30.511 -32.5,-32.5 -6.64,2.34 -12.66,0.149 -17.97,-6.492 19.34,-1.008 37.31,-4.679 53.99,-11.008 12.65,-6.992 24.84,-7.66 36.48,-1.992 6.68,5.352 13.67,7.34 21.02,6.012 7.34,-2.691 14.33,-2.191 21.01,1.488 -1.37,3.981 -3.87,6.172 -7.5,6.481 -21.68,8.359 -31.83,23.871 -30.51,46.519 0.32,21.332 0.51,43.321 0.51,65.981 0.31,7.031 1.13,12.191 2.5,15.511 2.66,1.68 5.98,3.161 10,4.489 6.99,2.34 13.83,1.679 20.47,-1.989 4.34,-3.992 8.87,-4.652 13.52,-1.992 5.66,3.672 10.66,3.16 15,-1.488 14.64,-10.66 29.33,-17.191 43.98,-19.531 16.68,-2.66 33.01,-3.981 49.02,-3.981 7,1.012 12.15,-1.488 15.51,-7.5 6.33,-7.347 13.83,-11.019 22.5,-11.019 8.32,0.66 17.15,0.859 26.49,0.511 3,0 6.01,2.848 8.98,8.508 3.01,5.672 3.87,8.992 2.5,10 -8.32,4.653 -12.15,11.641 -11.48,20.981 0.66,4.019 -1.33,7.34 -6.02,10 -3.63,2.031 -3.63,5.351 0,10 6.37,5.351 13.36,8.519 21.02,9.531 16.68,14.34 36.01,19.488 58,15.469 7.66,-1.989 13.32,0.859 17,8.519 0,7.651 -3.68,11.991 -11.02,13.001 -10,1.33 -18.83,2.82 -26.48,4.5 -11.02,10.66 -23.32,13.51 -37,8.51 -10,-0.35 -15.66,4.34 -16.99,13.99 -3.01,8.32 -1.01,14.33 5.98,18 11.68,6.33 23.51,8.48 35.51,6.49 21.68,-4.65 38.98,1.83 51.99,19.49 3.01,1.02 4.18,3.36 3.51,7.03 -2.34,16.33 4.85,24.65 21.49,25 v 10 c -14.65,15.31 -31.99,19.49 -51.99,12.5" /><path
         id="path18"
         style="fill:#3db54a;fill-opacity:1;fill-rule:evenodd;stroke:none"
         d="m 3031.21,1198.2 c -8.67,38.01 -30.35,66.33 -65,85 -6.01,2.66 -10.35,2 -13.01,-1.99 -5.35,-11.01 -12.65,-16.17 -21.99,-15.51 -9.02,0.32 -17.85,-0.35 -26.52,-1.99 -9.65,-3.01 -16.33,0.82 -20,11.49 -0.67,10 4.02,15 14.02,15 8.63,0 13.48,3.67 14.49,11.01 -1.01,8.99 -6.17,13.83 -15.5,14.49 -16.68,5.32 -20.36,15.16 -11.02,29.5 5.66,3 7.03,6.83 4.02,11.48 -5,5 -10.5,5.86 -16.52,2.5 -13.63,-8.98 -28.16,-10.98 -43.48,-5.98 5.98,9.34 8.48,17.66 7.5,25 -1.01,7.35 -6.52,22.15 -16.52,44.5 14.34,-7 27.7,-6.49 40,1.48 11.02,6.68 21.52,5.2 31.52,-4.49 7.66,-3.67 22.35,-4.65 43.99,-3.01 21.68,2.03 35.35,5.35 41.01,10 2,5 2.5,10.66 1.49,17.03 -2.35,40.98 -13.01,78.99 -31.99,113.99 -26.02,36.99 -62.5,58.82 -109.5,65.5 -18,4.34 -26.17,-4.02 -24.49,-25 5.31,-16.01 -1.68,-20.5 -21.01,-13.51 -22,6.99 -30.82,19.18 -26.49,36.52 -1.37,11.64 -7.34,18.32 -18.01,20 -9.68,3.99 -17.34,1.84 -23,-6.52 -6.02,-11.99 -12,-16.33 -18.01,-13.01 -5.67,3.67 -10.51,8.36 -14.49,14.02 -4.34,6.33 -8.52,12.35 -12.5,18.01 -4.34,5.31 -11.68,5.67 -22,0.98 -5.35,-0.98 -9.18,1.33 -11.52,6.99 -0.98,5.35 1.37,8.87 7.03,10.51 11.99,9.69 24.49,18.67 37.5,26.99 10.98,4.02 12.5,10.35 4.49,19.02 -5.35,5.32 -5.86,10.67 -1.52,15.98 5.66,6.68 12.7,8.87 21.02,6.52 14.33,-7.65 26.48,-5.35 36.48,7 16.02,8.98 31.84,9.84 47.5,2.5 17.34,-2.35 26.68,3.67 28.01,18 -0.67,14.34 -8.48,20.51 -23.48,18.48 -15,-6.33 -19.84,-1.84 -14.53,13.52 0.35,5.66 -3.32,9.64 -10.98,11.99 -10.35,-1.64 -16.01,3.83 -16.99,16.52 0.67,13.99 7.15,22.15 19.49,24.49 19.65,3.68 25.98,14.85 18.99,33.48 -1.64,16.68 -11.17,20.51 -28.48,11.52 -9.33,-6.68 -19.69,-12.85 -31.01,-18.51 -11.33,-5.31 -23.68,-3.48 -37,5.51 -4.02,4.33 -5.86,9.18 -5.5,14.49 0.66,5.66 -1.68,9.18 -7,10.51 -16.01,0.66 -26.99,-1.84 -33,-7.5 -5.67,-5.67 -14.5,-6.49 -26.49,-2.5 -2.69,-3.01 -6.52,-11.68 -11.52,-26.02 -5.31,-2.66 -11.49,-5.66 -18.48,-8.98 -7.03,-3.01 -6.01,-10.16 2.97,-21.49 0.66,-3.36 -2.66,-5.51 -10,-6.52 -13.32,-3.32 -15.98,-10.51 -7.97,-21.49 4.65,-5.35 4.14,-9.18 -1.52,-11.52 -5.67,-1.64 -8.99,0.86 -10,7.5 -5.31,32.34 -24.14,44.34 -56.49,36.02 -17.65,-4.34 -28.82,2.14 -33.51,19.49 1.33,18.01 11.33,25.66 30,23.01 13.67,2.34 27.85,5 42.5,8 14.02,1.64 16.83,10.32 8.51,25.98 -15.35,22.03 -35.66,29.02 -61.01,21.02 -14.34,-3.99 -28.83,-4.34 -43.48,-1.02 -10.35,1.68 -16.83,6.68 -19.53,15 0.66,8.01 6.17,14.18 16.52,18.52 13.01,-0.67 21.49,3.67 25.51,13 -0.66,8.99 -4.33,13.32 -11.01,13.01 -6.68,-0.35 -13.01,0 -18.99,0.98 -6.01,3.36 -12.19,6.17 -18.51,8.51 -11.33,3.68 -21.18,-0.15 -29.5,-11.52 -20.66,-21.33 -38.16,-17.81 -52.5,10.51 -11.99,21.33 -26.52,23.51 -43.51,6.52 -6.99,-10.66 -14.49,-12.03 -22.5,-4.02 -16.33,14.69 -33.48,14.02 -51.49,-1.99 -14.02,-13.01 -31.32,-18.17 -51.99,-15.51 -20.66,3.01 -39.53,-0.51 -56.52,-10.51 -10.98,-5.98 -22.35,-8.48 -33.99,-7.5 -7.65,2.03 -13.51,-0.47 -17.5,-7.5 -6.32,-22.97 -21.17,-30.98 -44.49,-23.98 -3.01,-0.67 -5.35,-2 -7.03,-3.99 0.66,-13.01 -3.83,-22.03 -13.48,-27.03 -9.68,-5 -17.65,-11.48 -24.02,-19.49 -13.32,-18.01 -28.98,-19.65 -46.99,-5 -10.98,11.33 -24.14,15.51 -39.49,12.5 -6.33,-1.64 -10.51,-3.83 -12.5,-6.49 -3.32,-16.99 -10.67,-33 -22,-48 -11.01,-15 -12.34,-31.18 -4.02,-48.52 3.01,-7.66 6.84,-16.13 11.52,-25.47 5,-9.33 15,-14.84 30,-16.52 40,0.35 76.33,-12.15 108.99,-37.5 4.02,-3.32 8.36,-5.82 13.01,-7.5 12.65,1.99 20.35,-3.17 23,-15.51 -1.32,-13.98 -7.18,-25.98 -17.5,-35.98 -11.68,-6.01 -21.17,-4.18 -28.51,5.51 -15.31,10.98 -32.15,21.13 -50.51,30.47 -18.98,7.34 -33.16,3.16 -42.5,-12.5 -10.98,-20.98 -27.97,-32.3 -50.98,-33.98 -31.68,-3.01 -52.5,-16.02 -62.5,-38.99 -7.65,-16.01 -18.82,-27.69 -33.51,-35 -14.65,-7.34 -26.17,-18.36 -34.49,-33.01 -6.02,-19.68 -5.67,-37.85 1.01,-54.49 3.63,-7.69 9.34,-9.69 16.99,-6.01 15.32,8.98 31.18,12.34 47.5,10 16.33,-2.66 32.66,-3.32 48.99,-2 23.67,0.32 44.69,5.82 63.01,16.49 18.98,10 37.14,10.51 54.49,1.52 13.01,-4.69 16.01,-12.03 9.02,-22.03 -12.69,-16.33 -26.52,-31.64 -41.52,-45.98 -5.98,-3.36 -12.15,-3 -18.48,0.98 -10.66,1.37 -21.17,2.19 -31.52,2.5 -10.31,0 -19.14,-5.82 -26.49,-17.5 -6.01,-7.3 -13,-8.83 -21.01,-4.49 -17.35,9.02 -34.85,12.65 -52.5,11.01 -17.66,-1.68 -35.31,-3.16 -53.01,-4.49 -0.98,-0.66 -1.99,-0.86 -2.97,-0.51 -18.36,8.68 -35,9.85 -50,3.48 -15,-6.33 -29.33,-15.16 -43.01,-26.48 v -17.5 c 29.65,-0.67 42.35,-15.51 38.01,-44.5 -0.66,-6.68 1.64,-11.17 6.99,-13.51 12.66,-13.32 26.18,-23.99 40.51,-31.99 14.34,-8.01 31.99,-8.68 52.97,-2 21.37,3.01 42.34,-1.01 63.01,-11.99 13.01,-6.68 16.68,-17.69 11.01,-33.01 -2.65,-16.99 -12.85,-25.15 -30.5,-24.49 -24.34,8.99 -46.49,3.99 -66.49,-15 -5.66,-4.69 -13.01,-6.37 -22.03,-5 -8.98,1.64 -17.3,0.31 -25,-4.02 -13.63,-1.64 -20.31,-9.34 -20,-23.01 6.68,-13.63 16.84,-18.83 30.51,-15.47 39.33,7.66 73.83,-1.68 103.51,-28.01 5.67,-4.33 12.35,-6.01 20,-5 7.66,0.98 13.68,-2.65 18.01,-11.01 6.99,-8.67 7.15,-14.85 0.47,-18.48 -8.32,-4.69 -11.99,-10.66 -10.98,-18.01 -3,-6.32 -4.49,-13.51 -4.49,-21.52 0.31,-8.32 -5.19,-13.63 -16.52,-15.98 -2.35,-1.99 -0.82,-8 4.49,-18 5.66,-10 11.17,-15 16.52,-15 16.64,0.66 32.35,0.15 47,-1.49 16.01,0.31 29.49,7.15 40.5,20.47 6.33,10.35 15.67,14.84 28.01,13.52 28.99,-0.67 58.32,1.48 87.97,6.48 26.37,4.34 52.5,16.02 78.52,35 8.32,8.67 17.5,9.69 27.5,3.01 8,-4.65 16.17,-3.48 24.49,3.51 11.68,6.64 23.83,7.82 36.52,3.48 9.65,-2.3 16.99,-5.82 21.99,-10.47 0.32,0 0.32,0 0,0 8.68,-5 17.66,-8.67 27,-11.01 5.35,2.65 11.99,3.51 20,2.5 3.67,-5.36 8,-10.67 13,-16.02 8.01,0 16.64,1.17 25.98,3.52 1.68,-0.36 3.36,-0.67 5,-1.02 1.68,1.68 4.18,2.85 7.5,3.52 13.01,3.98 21.52,0.5 25.51,-10.51 1.68,-8.32 5.35,-10.16 11.01,-5.51 6.33,5 12.15,4.53 17.5,-1.48 5,-18.32 16.49,-24.18 34.5,-17.5 5,0 7.65,-2.15 8,-6.49 -5.35,-13.67 -5,-20.35 0.98,-20 6.37,0 13.01,0.31 20,0.98 6.02,-0.31 11.68,-1.49 17.03,-3.48 32.66,-16.37 62.15,-10.19 88.48,18.48 5,3.67 10.15,4.69 15.51,3.01 7.65,-1.33 11.99,1.01 13,6.99 -1.99,14.02 0.16,21.17 6.49,21.52 6.68,0.31 14.02,-0.19 21.99,-1.52 38.36,-6.64 75.66,-8.32 112.03,-5 13.32,1.33 27.15,2.19 41.49,2.5 14.33,0 27.14,6.17 38.51,18.51 10.67,9.65 14.49,21.84 11.49,36.49 -7,12.65 -17.15,18.36 -30.51,16.99 -6.99,1.02 -14.49,3.01 -22.5,6.02 26.33,14.64 54.33,21.68 84.02,21.01 9.65,-1.01 17.66,-5.86 23.99,-14.53 13.32,-22.97 25.66,-22.66 36.99,1.02 8.36,7.65 17.34,8.98 26.99,3.98 32.34,-5.98 61.37,1.68 87.03,23.01 10.98,9.69 15.16,20.86 12.5,33.51" /><path
         id="path20"
         style="fill:#1a6735;fill-opacity:1;fill-rule:evenodd;stroke:none"
         d="m 2182.19,1154.18 c 0,0 0,-0.16 0,-0.47 0.35,0.31 0.66,0.67 1.01,0.98 l -1.01,-0.51" /><path
         id="path22"
         style="fill:#1a6735;fill-opacity:1;fill-rule:evenodd;stroke:none"
         d="m 2182.7,1236.68 c 0.35,0 0.5,0.2 0.5,0.51 l -0.5,-0.51" /><path
         id="path24"
         style="fill:#1a6735;fill-opacity:1;fill-rule:evenodd;stroke:none"
         d="m 2618.71,1150.7 c -11.68,3.32 -19.84,-0.15 -24.53,-10.5 0,-0.36 0,-0.51 0,-0.51 h -0.47 c 0,0 0.16,0.15 0.47,0.51 -1.99,2.65 -3.98,5.5 -5.98,8.51 0.98,8.99 5,13.99 12,15 6.99,0.67 13,2.81 18,6.49 5,1.68 8.32,-1.84 10,-10.51 0.32,-8.67 -2.85,-11.64 -9.49,-8.99 m -144.02,-93 c -3.32,-4.34 -10.31,-3.99 -20.98,1.01 -10.35,5 -17.85,10.31 -22.5,15.98 -12.69,15.35 -29.02,20.86 -49.02,16.52 -15,-2.34 -29.65,-2.5 -43.99,-0.51 -6.32,-0.35 -10.86,2.5 -13.51,8.48 -1.33,7.7 1.52,13.36 8.51,17.03 18.01,13.32 37.15,18.83 57.5,16.49 15,-6.02 29.85,-5.82 44.5,0.5 6.01,2.35 10,0.82 11.99,-4.49 2.65,-16.37 9.18,-24.84 19.49,-25.51 10,-0.66 20.51,-0.66 31.52,0 8.32,3.01 17.66,2.66 28.01,-1.01 -21.37,-10 -38.51,-24.85 -51.52,-44.49 m -146.49,148.51 c 20.32,35.31 46.18,39.14 77.5,11.49 13.32,-16.68 29.14,-32.35 47.5,-47 -1.99,8.99 0.82,15.32 8.48,18.99 12.34,-1.33 22.19,-6.99 29.53,-16.99 3.99,-7.35 2.31,-12.86 -5,-16.49 -5.66,-5.35 -11.37,-11.17 -17.03,-17.5 -5.98,-6.01 -13.63,-2.34 -22.97,10.98 -4.69,3.01 -10.86,2.65 -18.51,-0.98 -16.33,-3.01 -26.02,2.5 -28.99,16.49 -0.66,11.68 -3.67,16.99 -9.02,16.01 -5,-1.01 -10.31,-2.5 -15.98,-4.53 -6.37,-2.97 -12.69,-5.47 -19.02,-7.5 -3.99,-0.98 -8.32,-2.81 -13.01,-5.47 -4.34,-2.34 -8.32,-0.19 -11.99,6.49 -6.99,11.68 -7.5,23.67 -1.49,36.01 m 703.01,-7.5 c -9.02,37.97 -30.66,66.13 -65,84.49 -6.37,3.01 -10.86,2.35 -13.51,-1.99 -5,-10.66 -12.15,-15.86 -21.49,-15.51 -9.33,0.67 -18.16,0.16 -26.52,-1.52 -9.65,-2.97 -16.49,0.86 -20.51,11.52 -0.66,9.65 4.02,14.5 14.02,14.5 8.99,0 13.99,3.67 15,11.01 -1.01,9.34 -6.17,14.34 -15.5,15 -16.68,5 -20.36,14.81 -11.02,29.49 5.35,2.66 6.52,6.49 3.52,11.49 -4.65,4.69 -10,5.35 -16.02,1.99 -13.63,-8.63 -28.32,-10.66 -43.98,-5.98 6.01,9.65 8.51,18.01 7.5,25 -0.67,7.35 -6.02,22.35 -16.02,45 14.02,-6.99 27.19,-6.52 39.53,1.49 11.33,6.33 21.99,4.69 31.99,-5 7.35,-3.67 21.84,-4.49 43.48,-2.5 22.03,1.68 35.66,5 41.02,10 1.99,5 2.65,10.66 1.99,16.99 -2.66,41.02 -13.48,78.87 -32.5,113.52 -25.67,36.99 -62.15,58.98 -109.49,66.01 -17.66,3.99 -25.82,-4.53 -24.5,-25.51 5,-15 -0.86,-19.68 -17.5,-14.02 -1.32,-2.97 -2.65,-5.98 -4.02,-8.98 -5.66,1.99 -10.82,-3.32 -15.47,-16.02 -2.03,-1.64 -4.33,-3.16 -7.03,-4.49 -11.64,-13.32 -21.33,-26.99 -28.98,-40.98 -11.33,-29.69 -28.99,-33.51 -53.01,-11.52 -4.34,8.67 -11.33,12.19 -20.98,10.51 9.34,-6.33 15.67,-17 18.99,-32 -13.68,0.32 -24.5,-1.17 -32.5,-4.49 -11.33,-0.66 -23.17,-2.85 -35.51,-6.52 -12.35,-3.99 -23.01,1.99 -31.99,18.01 -3.99,4.33 -8.68,1.99 -13.99,-7 -5,-14.02 -14.02,-25 -27.03,-33 -27.97,-7.66 -58.63,-9.18 -91.99,-4.5 14.69,8.01 21.01,16.33 19.02,25 -2.69,24.34 7.81,38.99 31.49,43.99 16.68,2.34 26.01,11.99 28,29.02 v -1.52 c 0,7.34 -0.15,14.49 -0.5,21.52 -33.99,-4.33 -68.01,-9.69 -102,-16.01 -16.68,-6.33 -32.18,-5.16 -46.52,3.51 -3.32,1.64 -5.82,2.31 -7.5,1.99 -4.65,-9.33 -11.84,-13.16 -21.48,-11.52 -9.65,2.03 -18.17,-0.66 -25.51,-7.97 -11.33,-8.67 -24.34,-6.68 -38.99,5.98 4.65,5.66 5.32,12.34 2,20 -3.32,7.65 -0.82,13.51 7.5,17.5 16.01,10.35 34.18,16.68 54.49,19.02 18.36,-2.03 31.33,6.49 39.02,25.47 3.99,9.34 10.82,16.37 20.47,21.02 9.69,5 15.66,13 18.01,23.98 l -0.98,-0.98 c 0.98,4.65 1.84,9.34 2.5,13.99 v -0.51 c 27.66,4.69 53.63,14.53 77.97,29.53 6.68,1.33 15.66,-0.19 27.03,-4.53 -6.37,9.34 -4.53,16.37 5.47,21.02 -8.98,0.66 -17.97,1.32 -26.99,1.99 8.01,5.35 10,11.68 6.01,19.02 -3.67,7.31 -2.85,13.99 2.5,20 13.32,13.32 10.67,20 -8,20 -12.66,-3.67 -18.99,1.64 -18.99,15.98 -0.66,18.01 -8.01,19.84 -22.03,5.51 -3.63,-11.02 -11.33,-13.99 -22.97,-8.99 -10.66,6.99 -22.69,10.98 -36.01,11.99 -13.68,0.98 -24.18,8.48 -31.49,22.5 -3.01,3.01 -7.5,4.14 -13.51,3.48 -10.67,-0.98 -21.68,0.51 -33.01,4.53 -10.98,3.99 -21.33,0.31 -30.98,-11.01 -1.68,0 -4.18,1.01 -7.5,3 -17.03,5.98 -34.33,10.67 -52.03,13.99 -19.65,5.35 -37.66,1.99 -53.98,-10 -12.35,-24.65 -28.99,-31.33 -50,-20 -18.99,8.01 -31.18,3.83 -36.49,-12.5 -5.66,-8.01 -4.84,-12.81 2.5,-14.49 7.31,-1.33 10.98,-5.67 10.98,-13.01 -20.67,-14.65 -43.32,-16.33 -68.01,-5 -5.98,5.35 -10.98,4.02 -15,-3.99 -17.3,-23 -10.98,-33.82 19.02,-32.5 18.01,0.98 20.51,-4.68 7.5,-16.99 -5,-9.02 -4.33,-14.02 2,-15 10,3.99 18.67,2.81 26.01,-3.51 7.31,-6.02 15.47,-8.52 24.49,-7.5 10,0.35 16.18,-5.82 18.48,-18.52 3.01,-9.34 2.03,-17.66 -2.97,-25 -4.69,-7.3 -9.02,-15.98 -13.01,-25.98 19.34,13.32 37.5,24.34 54.5,33.01 6.32,1.33 6.83,6.49 1.48,15.47 -8.63,9.69 -4.65,17.03 12.03,22.03 21.33,0.67 31.13,-8.16 29.49,-26.52 -2.34,-7.35 -0.35,-10.98 5.98,-10.98 15.35,0.31 18.87,-5.35 10.51,-17.03 -1.99,-5 -4.65,-9.8 -8.01,-14.49 -2.97,-5 -8.32,-4.65 -15.98,1.01 -7.65,8.01 -12.5,6.64 -14.49,-4.02 -5,-13.32 -11.83,-19.34 -20.51,-17.97 -15.35,11.33 -28.51,12.81 -39.49,4.49 -10.66,-8.36 -21.83,-14.84 -33.51,-19.49 -3.01,-3.67 -3.83,-10.51 -2.5,-20.51 3.32,-5 8.16,-4.68 14.49,0.98 4.69,5 8.16,4.53 10.51,-1.48 3,-7 0.82,-11.33 -6.49,-13.01 -16.01,-7.35 -31.52,-6.17 -46.52,3.51 -10.67,10 -18.67,10.16 -23.99,0.51 -5.35,-19.69 -17.5,-30.19 -36.52,-31.52 5,-4.65 8.67,-10.51 11.02,-17.5 -7.66,3.01 -15.67,5 -23.99,6.01 2.31,-10 5.47,-16.32 9.49,-19.02 3.68,-2.66 9.34,-7.5 17,-14.49 8.67,-7.35 16.32,-9.34 23,-5.98 6.64,3.63 12.15,4.49 16.49,2.5 11.68,-8.36 19.84,-8.67 24.49,-1.01 4.69,7.65 10.2,12.85 16.52,15.5 7.66,-0.35 15.32,-2.85 23.01,-7.5 7.31,-4.68 15.47,-3.82 24.49,2.5 0.67,0.98 0.82,2.5 0.51,4.5 -3.01,4.64 -7.19,5.82 -12.5,3.51 -5.35,-2.03 -9.53,0.16 -12.5,6.49 25.31,19.33 51.84,19.33 79.49,0 -4.33,-2.66 -7.18,-4.65 -8.51,-6.02 -4.65,-3.98 -10.16,-7.3 -16.49,-10 -6.68,-2.66 -8.51,-7.81 -5.5,-15.47 9.33,-10.35 21.32,-11.52 36.01,-3.51 1.99,0.66 3.83,1.48 5.47,2.5 22.34,10.35 37.19,3.51 44.53,-20.51 3.32,-8.67 8.17,-17.15 14.49,-25.51 -9.68,-6.33 -19.68,-9.34 -30,-8.98 -3.36,1.01 -5.35,-0.36 -6.01,-3.99 1.01,-3.67 2.34,-6.17 4.02,-7.5 16.64,-2.69 28.32,-2.69 35,0 10.98,18.32 24.65,21.64 40.98,10 7.65,-4.69 9.49,-10 5.51,-16.01 -3.68,-6.02 -4.85,-11.84 -3.52,-17.5 l 1.52,-2.5 c 8.01,0 15.16,-2 21.49,-6.02 1.68,-5 0.15,-7.97 -4.49,-8.98 -7.66,-2.66 -11.49,-7.86 -11.49,-15.51 0.98,-3.99 3.99,-5.82 8.99,-5.51 7.65,0 12.65,3.67 15,11.02 3.67,6.99 7.34,13.82 11.01,20.5 7.66,10.67 16.84,13.17 27.5,7.5 12.31,-4.02 18.63,-11.83 18.99,-23.51 -0.36,-5.98 -3.52,-9.34 -9.5,-10 -6.32,-0.31 -11.99,-2.81 -16.99,-7.5 15.98,0 30.82,-3.83 44.49,-11.49 13.68,-7.65 28.68,-8.82 45,-3.51 6.64,0 14.5,-2.5 23.48,-7.5 0.35,0.35 0.51,0.51 0.51,0.51 0.35,0.35 0.51,0.66 0.51,1.01 3,20.98 14.64,33.83 35,38.48 22.65,8.67 40.15,2.19 52.5,-19.49 3,-7 7.65,-8.99 13.98,-6.02 1.68,5.35 1.17,9.69 -1.48,13.01 -1.33,7.65 -4.34,15.86 -8.99,24.49 -5,9.02 1.64,15 20,18.01 8.32,3.67 15.31,11.33 20.98,23.01 0.66,5.66 -2.35,10 -8.99,13 -13,3.68 -23.67,0.67 -31.99,-9.02 -10.35,-17.3 -19.53,-16.64 -27.5,2.03 -6.37,8.32 -15.86,12.15 -28.51,11.49 8.32,3.67 16.48,7.5 24.49,11.48 8.01,4.34 17.34,3.67 28.01,-1.99 5.66,-0.67 12.85,0.86 21.48,4.49 8.01,3.01 15.86,5.66 23.52,8.01 7.65,1.99 13,-4.34 16.01,-18.99 3.63,-2.34 8.99,-2.65 15.98,-1.01 14.33,15 25.35,11.99 33.01,-8.99 2.34,-5 6.99,-5 13.98,0 6.68,5 14.69,6.33 24.02,3.99 -14.33,-13.32 -23,-30.16 -26.01,-50.51 -3.01,-20 -15.82,-34.49 -38.48,-43.48 11.99,-2.34 25.31,-4.84 40,-7.5 -10.35,-6.01 -12.69,-15 -7.03,-26.99 14.02,-29.02 4.34,-40 -28.98,-33.01 -18.99,8.68 -33.83,3.68 -44.5,-15 3.99,-4.68 8.68,-6.01 13.99,-4.02 5.35,2.34 10.35,2.34 15,0 0.35,-2.66 0.35,-4.49 0,-5.47 -23.01,-4.33 -46.33,-9.69 -70,-16.01 -10.31,-2.66 -18.83,0.5 -25.51,9.49 -6.99,9.02 -14.8,16.33 -23.48,21.99 -4.68,6.02 -10.35,8.16 -16.99,6.52 -4.02,-8 -9.02,-9.02 -15,-3 -4.69,8.32 -2.19,15.15 7.5,20.5 16.33,17 14.34,32.15 -6.01,45.51 -5,2.31 -8.32,0.67 -10,-5 0,-0.35 0,-0.86 0,-1.52 -0.36,0 -0.67,0 -1.02,0 -5.66,-3.67 -12.5,-6.49 -20.47,-8.48 -8.01,-2.03 -8.16,-9.53 -0.51,-22.5 0.32,-3.36 -1.17,-6.52 -4.49,-9.53 -4.33,-3.32 -8.67,-2.81 -13.01,1.52 -5,6.33 -10.5,11.84 -16.52,16.49 -5.66,4.33 -11.13,4.33 -16.48,0 -10.67,-14.34 -20.67,-22.66 -30,-25 -9.34,-1.99 -23.17,0.66 -41.49,8.01 -4.69,1.99 -9.33,2.85 -14.02,2.5 -10.67,-1.68 -19.49,-4.5 -26.49,-8.52 -6.99,-4.34 -5.15,-14.34 5.51,-30 -20.66,6.37 -35.66,1.68 -45,-13.98 -2.34,-8.68 -7.19,-10.67 -14.53,-6.02 -5,5.66 -5,10.86 0,15.51 15.66,11.99 20,22.5 13.01,31.52 -6.64,8.99 -13.32,17.97 -20,26.99 -1.33,-5 -2.81,-8.36 -4.49,-10 -26.68,-8.36 -48.32,-23.82 -65,-46.52 -0.36,-0.98 -0.36,-1.64 0,-1.99 16.68,-13.67 33.16,-23.17 49.49,-28.48 18.67,-8.36 38.67,-10.86 60,-7.5 1.99,-0.66 3.67,-2.5 5,-5.51 0.35,-7.34 -2.35,-11.99 -8.01,-14.02 -14.65,-4.65 -28.32,-11.13 -40.98,-19.49 -4.33,-0.67 -8.82,-0.82 -13.51,-0.51 -4.34,0.35 -4.14,-4.65 0.51,-15 1.99,-3.98 0.66,-4.49 -3.99,-1.48 -5,3.32 -9.02,3 -12.03,-1.02 1.37,-1.99 2.85,-4.14 4.53,-6.48 10,-4.65 13.83,-11.18 11.49,-19.5 -8.01,-5 -15.67,-3.16 -23.01,5.51 -17.35,3.99 -27.35,14.81 -30,32.5 -11.33,-10 -23.32,-20.86 -35.98,-32.5 5,-2.03 9.49,-3.16 13.48,-3.51 24.02,0.35 45.51,-6.49 64.49,-20.51 3.36,-4.65 5.51,-15.98 6.52,-33.99 0.32,-40.35 0.82,-79.68 1.49,-118.001 2.34,-40.668 -16.17,-68.519 -55.51,-83.519 -6.33,-0.66 -10.66,-4.649 -12.97,-11.989 12.31,-6.64 24.81,-7.5 37.5,-2.5 12.97,2.34 25.67,-1.332 37.97,-10.98 21.02,-10 42.7,-8.871 65,3.48 30.35,11.329 62.85,18.008 97.5,20 -9.65,11.68 -20.47,15.86 -32.5,12.5 -36.99,3.36 -56.48,22.5 -58.48,57.5 -3.36,42.34 -2.85,84.839 1.49,127.499 0.35,1.33 0.51,2.85 0.51,4.49 0.35,0 0.5,0.2 0.5,0.51 0,1.68 0.32,3.51 0.98,5.51 0.66,0 1.37,0 2.03,0 1.99,0 3.63,-0.36 5,-1.02 1.64,2.03 4.34,3.16 7.97,3.52 12.7,3.98 21.17,0.5 25.51,-10.51 1.68,-8.01 5.15,-9.85 10.51,-5.51 6.68,5.35 12.65,4.84 18,-1.48 5,-18.01 16.49,-23.83 34.5,-17.5 4.64,0.35 7.34,-1.84 8,-6.49 -5.66,-13.36 -5.35,-20 0.98,-20 6.37,0.31 13.01,0.82 20,1.49 5.66,-0.36 11.37,-1.68 17.03,-3.99 32.66,-16.37 61.99,-10.19 87.97,18.48 5.35,3.67 10.51,4.69 15.51,3.01 8.01,-1.33 12.34,1.17 13.01,7.5 -2,13.67 0.35,20.82 6.99,21.48 6.33,0.35 13.67,-0.31 21.99,-1.99 38.01,-6.33 75.35,-8.01 112.03,-5 13.32,1.33 27.15,2.19 41.49,2.5 14.33,0.35 26.99,6.68 38,19.02 10.98,9.65 15,21.84 12,36.49 -7.35,12.34 -17.5,17.85 -30.51,16.48 -7.35,1.37 -14.85,3.52 -22.5,6.52 26.01,14.34 53.83,21.33 83.51,20.98 9.65,-1.33 17.82,-6.33 24.5,-15 13,-22.97 25.35,-22.5 36.99,1.52 8.01,7.35 16.83,8.68 26.52,3.99 32.66,-6.33 61.84,1.17 87.5,22.5 10.98,10 15.16,21.33 12.5,34.02" /><path
         id="path26"
         style="fill:#1a6735;fill-opacity:1;fill-rule:evenodd;stroke:none"
         d="m 2329.69,812.699 c 324.33,-0.668 622.85,-15.82 895.51,-45.508 273,-29.652 503.51,-70.312 691.48,-121.992 -128.63,83.981 -333.48,151.68 -614.49,203 -280.98,51.332 -605.16,77.66 -972.5,78.992 -366.99,-1.332 -691.17,-27.66 -972.5,-78.992 -280.98,-51.32 -485.67,-119.019 -613.991,-203 188.012,51.68 418.321,92.34 690.981,121.992 272.7,29.688 571.17,44.84 895.51,45.508" /><path
         id="path28"
         style="fill:#1a6735;fill-opacity:1;fill-rule:nonzero;stroke:none"
         d="M 307.969,123.48 V 112.699 H 195.621 v 10.781 c 1.328,-0.242 2.699,-0.32 4.07,-0.32 1.559,0 3.118,0 4.688,0 8,0 14.293,0.86 18.902,2.66 6.328,2.7 9.528,6.95 9.528,12.809 v 112.5 H 73.5898 v -107.18 c 0,-7.187 2.6993,-12.578 8.129,-16.097 5.5117,-3.442 12.3828,-5.153 20.6212,-5.153 2.191,0 5.16,0.231 8.91,0.781 V 112.699 H 0 v 10.781 c 8.19922,0 14.3789,0.391 18.4414,1.25 12.2578,2.571 18.4375,8.75 18.4375,18.43 v 217.192 c 0,5.82 -2.9687,9.726 -8.9101,11.718 -5.8594,1.95 -13.2774,2.969 -22.34771,2.969 -2.73046,0 -4.60156,0 -5.62109,0 v 10.473 h 110.469 v -10.473 c -12.3088,0 -20.3088,-0.391 -24.0588,-1.09 -8.5586,-1.879 -12.8204,-6.179 -12.8204,-12.82 V 266.762 H 232.809 v 90.308 c 0,6.129 -4.18,10.66 -12.5,13.59 -8.239,2.891 -16.719,4.379 -25.469,4.379 v 10.473 h 112.351 v -10.473 c -10.429,0 -19.179,-1.168 -26.25,-3.437 -6.992,-2.192 -10.472,-6.872 -10.472,-14.063 V 139.102 c 0,-5.122 2.89,-9.141 8.75,-12.032 5.82,-2.929 12.73,-4.371 20.781,-4.371 1.328,0 2.699,0 4.059,0 1.882,0.5 3.171,0.781 3.91,0.781 z m 196.871,-1.57 v -9.211 h -57.961 v 32.813 C 435.391,134.879 426.09,127.109 418.91,122.23 c -11.801,-7.742 -22.89,-11.57 -33.289,-11.57 -14.922,0 -27.141,3.32 -36.711,10 -10.941,7.5 -16.41,18.602 -16.41,33.289 0,18.121 6.129,32.653 18.441,43.59 9.758,8.75 24.289,15.512 43.59,20.313 10.629,2.699 28.047,5.668 52.348,8.91 v 21.867 c 0,5.941 -4.688,12.23 -14.07,18.91 -10.618,7.691 -21.95,11.563 -33.899,11.563 -11.488,0 -20.551,-3.204 -27.191,-9.532 -5.629,-5.429 -9.918,-13.441 -12.809,-24.058 l -11.25,2.34 1.559,23.277 c 9.062,5.82 16.402,10.199 22.031,13.133 17.379,9.058 31.91,13.59 43.59,13.59 16.57,0 31.289,-4.493 44.219,-13.442 12.89,-8.859 19.382,-18.238 19.382,-28.121 V 140.66 c 0,-5.621 1.598,-9.922 4.84,-12.808 4.258,-3.981 11.449,-5.942 21.559,-5.942 z m -63.121,32.352 c 1.011,1.636 2.109,3.359 3.281,5.148 1.25,1.879 1.879,3.988 1.879,6.41 v 46.09 c -20,0 -37.617,-3.859 -52.82,-11.558 -18.438,-9.372 -27.649,-22.461 -27.649,-39.223 0,-7.5 3.039,-14.328 9.211,-20.469 6.141,-6.172 13.051,-9.211 20.789,-9.211 8,0 15.781,1.949 23.281,5.93 7.5,4.07 14.84,9.691 22.028,16.883 z" /><path
         id="path30"
         style="fill:#1a6735;fill-opacity:1;fill-rule:nonzero;stroke:none"
         d="m 666.559,290.66 c -1.68,-6.871 -2.77,-13.98 -3.278,-21.25 -0.551,-7.18 -0.781,-14.922 -0.781,-23.121 -2.109,-0.859 -4.34,-0.859 -6.719,0 -3.75,4.57 -6.832,7.891 -9.222,10 -5.618,4.762 -12.028,7.191 -19.219,7.191 -6.168,0 -12.77,-2.82 -19.84,-8.441 -7.109,-5.551 -11.84,-11.801 -14.219,-18.75 V 133.16 c 0,-4.289 3.52,-7.262 10.629,-8.898 7.07,-1.563 14.449,-2.352 22.18,-2.352 2.89,0 4.609,0 5.16,0 0.309,0 0.551,0 0.781,0 v -9.211 H 526.879 v 9.211 c 7.18,0 12.531,0.078 16.09,0.32 10.621,1.321 15.941,4.68 15.941,10 v 133.282 c 0,2.066 -2.031,3.508 -6.101,4.367 -3.981,0.82 -8.43,1.25 -13.43,1.25 -3.051,0 -5.859,0 -8.438,0 -0.863,0 -2.031,-0.149 -3.601,-0.469 l -0.461,10 c 20.312,2.391 41.402,7.86 63.281,16.41 l 3.121,-3.91 v -39.68 c 6.449,9.879 11.918,17.219 16.41,22.032 14.137,14.687 28.829,22.027 44.059,22.027 5,0 9.262,-2.309 12.809,-6.879 z" /><path
         id="path32"
         style="fill:#1a6735;fill-opacity:1;fill-rule:nonzero;stroke:none"
         d="m 822.031,290.66 c -1.679,-6.871 -2.769,-13.98 -3.281,-21.25 -0.551,-7.18 -0.781,-14.922 -0.781,-23.121 -2.11,-0.859 -4.34,-0.859 -6.719,0 -3.75,4.57 -6.84,7.891 -9.219,10 -5.621,4.762 -12.031,7.191 -19.222,7.191 -6.168,0 -12.77,-2.82 -19.84,-8.441 -7.11,-5.551 -11.84,-11.801 -14.219,-18.75 V 133.16 c 0,-4.289 3.52,-7.262 10.629,-8.898 7.07,-1.563 14.449,-2.352 22.18,-2.352 2.89,0 4.613,0 5.16,0 0.312,0 0.551,0 0.781,0 v -9.211 H 682.34 v 9.211 c 7.191,0 12.539,0.078 16.101,0.32 10.618,1.321 15.938,4.68 15.938,10 v 133.282 c 0,2.066 -2.039,3.508 -6.098,4.367 -3.98,0.82 -8.441,1.25 -13.441,1.25 -3.039,0 -5.86,0 -8.43,0 -0.859,0 -2.031,-0.149 -3.601,-0.469 l -0.469,10 c 20.32,2.391 41.41,7.86 63.281,16.41 l 3.129,-3.91 v -39.68 c 6.449,9.879 11.91,17.219 16.41,22.032 14.141,14.687 28.82,22.027 44.059,22.027 5,0 9.261,-2.309 12.812,-6.879 z" /><path
         id="path34"
         style="fill:#1a6735;fill-opacity:1;fill-rule:nonzero;stroke:none"
         d="m 883.91,382.699 c 5.82,0 10.699,-2.148 14.68,-6.41 4.07,-4.301 6.101,-9.609 6.101,-15.937 0,-5.942 -2.152,-10.903 -6.41,-14.84 -4.301,-3.992 -9.492,-5.942 -15.621,-5.942 -6.18,0 -11.25,2.071 -15.32,6.25 -3.981,4.258 -5.93,9.61 -5.93,16.09 0,5.82 2.11,10.711 6.399,14.692 4.261,4.058 9.613,6.097 16.101,6.097 z m 47.5,-260.789 v -9.211 h -92.351 v 9.211 c 1.882,0 3.32,0 4.382,0 6.329,0 12.071,0.629 17.18,1.879 5.078,1.332 7.66,4.141 7.66,8.441 v 122.032 c 0,6.129 -2.109,10.508 -6.25,13.117 -4.179,2.699 -9.691,4.07 -16.562,4.07 -1.879,0 -4.688,-0.277 -8.438,-0.789 v 10 c 10.629,1.641 21.25,3.789 31.879,6.41 10.699,2.7 21.168,6.02 31.399,10 l 3.132,-3.91 V 131.91 c 0,-4.801 3.321,-7.89 10,-9.211 2.688,-0.551 8.668,-0.789 17.969,-0.789 z" /><path
         id="path36"
         style="fill:#1a6735;fill-opacity:1;fill-rule:nonzero;stroke:none"
         d="m 1053.12,298.629 c 19.77,-2.418 35.94,-10.617 48.44,-24.68 11.45,-12.82 19.57,-29.929 24.38,-51.25 l -48.28,-17.187 h -86.879 c 0,-17.621 4.528,-33.871 13.599,-48.75 10.39,-17.114 23.32,-26.332 38.74,-27.66 1.88,-0.313 3.76,-0.473 5.63,-0.473 1.64,0 3.44,0 5.31,0 10.32,0 19.73,1.172 28.28,3.601 8.52,2.379 18.44,6.29 29.69,11.719 l 2.35,-3.289 c -3.76,-10.93 -11.22,-19.332 -22.35,-25.148 -9.92,-5.082 -21.8,-7.66 -35.62,-7.66 -29.61,0 -53.6,7.5 -72.031,22.5 -21.059,16.949 -31.57,41.488 -31.57,73.597 0,24.762 8.32,46.91 25,66.403 16.64,19.449 37.661,29.218 62.971,29.218 1.33,0 3.05,-0.121 5.16,-0.308 2.18,-0.121 4.57,-0.313 7.18,-0.633 z M 991.559,220.66 h 96.881 c 0.19,2.391 0.31,4.11 0.31,5.16 0,14.141 -3.59,27.11 -10.78,38.91 -8.24,13.321 -18.52,20 -30.78,20 -20.86,0 -35.78,-6.57 -44.85,-19.691 -7.18,-10.309 -10.781,-25.117 -10.781,-44.379 z m 15.321,140 c 6.64,0 12.26,-1.949 16.87,-5.781 4.69,-3.859 7.03,-8.859 7.03,-15 0,-6.168 -1.87,-11.641 -5.62,-16.399 -3.75,-4.808 -8.28,-7.191 -13.6,-7.191 -6.87,0 -12.888,1.871 -17.97,5.621 -5.11,3.75 -7.649,8.68 -7.649,14.852 0,6.636 1.911,12.258 5.778,16.867 3.941,4.691 8.981,7.031 15.161,7.031 z m 73.9,0 c 6.64,0 12.34,-1.949 17.03,-5.781 4.69,-3.859 7.03,-8.859 7.03,-15 0,-6.168 -1.87,-11.641 -5.62,-16.399 -3.75,-4.808 -8.28,-7.191 -13.6,-7.191 -6.99,0 -13.04,1.871 -18.12,5.621 -5,3.75 -7.5,8.68 -7.5,14.852 0,6.636 1.91,12.258 5.78,16.867 3.83,4.691 8.83,7.031 15,7.031 z" /><path
         id="path38"
         style="fill:#1a6735;fill-opacity:1;fill-rule:nonzero;stroke:none"
         d="m 1212.03,284.73 h 50.78 l -3.9,-18.91 h -46.88 V 154.73 c 0,-6.492 1.88,-11.332 5.63,-14.531 3.75,-3.129 8.51,-4.687 14.37,-4.687 8.83,0 16.72,1.718 23.59,5.148 l 6.41,-5.93 c -6.99,-7.191 -13.91,-14.3 -20.78,-21.25 -2.93,-2.07 -10,-3.128 -21.25,-3.128 -10.94,0 -20.12,2.5 -27.5,7.5 -8.87,6.128 -13.28,14.847 -13.28,26.097 V 265.82 h -26.72 v 6.09 l 26.72,12.82 v 55.93 l 32.81,16.41 z" /><path
         id="path40"
         style="fill:#1a6735;fill-opacity:1;fill-rule:nonzero;stroke:none"
         d="m 1344.84,284.73 h 50.78 l -3.9,-18.91 h -46.88 V 154.73 c 0,-6.492 1.88,-11.332 5.63,-14.531 3.75,-3.129 8.51,-4.687 14.37,-4.687 8.83,0 16.72,1.718 23.6,5.148 l 6.4,-5.93 c -6.99,-7.191 -13.9,-14.3 -20.78,-21.25 -2.93,-2.07 -10,-3.128 -21.25,-3.128 -10.93,0 -20.11,2.5 -27.5,7.5 -8.86,6.128 -13.28,14.847 -13.28,26.097 V 265.82 h -26.72 v 6.09 l 26.72,12.82 v 55.93 l 32.81,16.41 z" /><path
         id="path42"
         style="fill:#1a6735;fill-opacity:1;fill-rule:nonzero;stroke:none"
         d="m 1517.19,298.629 c 19.76,-2.418 35.93,-10.617 48.43,-24.68 11.45,-12.82 19.58,-29.929 24.38,-51.25 l -48.28,-17.187 h -86.88 c 0,-17.621 4.54,-33.871 13.6,-48.75 10.39,-17.114 23.32,-26.332 38.75,-27.66 1.87,-0.313 3.75,-0.473 5.62,-0.473 1.64,0 3.44,0 5.31,0 10.32,0 19.73,1.172 28.29,3.601 8.51,2.379 18.43,6.29 29.68,11.719 l 2.35,-3.289 c -3.75,-10.93 -11.21,-19.332 -22.35,-25.148 -9.92,-5.082 -21.79,-7.66 -35.62,-7.66 -29.61,0 -53.59,7.5 -72.03,22.5 -21.06,16.949 -31.56,41.488 -31.56,73.597 0,24.762 8.32,46.91 25,66.403 16.64,19.449 37.65,29.218 62.96,29.218 1.33,0 3.05,-0.121 5.16,-0.308 2.19,-0.121 4.57,-0.313 7.19,-0.633 z m -61.57,-77.969 h 96.88 c 0.2,2.391 0.31,4.11 0.31,5.16 0,14.141 -3.59,27.11 -10.78,38.91 -8.24,13.321 -18.51,20 -30.78,20 -20.86,0 -35.78,-6.57 -44.84,-19.691 -7.19,-10.309 -10.79,-25.117 -10.79,-44.379 z" /><path
         id="path44"
         style="fill:#1a6735;fill-opacity:1;fill-rule:nonzero;stroke:none"
         d="m 2114.38,385.512 v -10.473 c -7.19,0 -13.09,-1.367 -17.66,-4.059 -4.61,-2.621 -7.42,-5.628 -8.44,-9.07 l -71.56,-250.781 h -20.47 l -77.5,213.133 -82.03,-213.133 h -20 l -57.19,254.691 c -2.93,3.52 -7.11,6.09 -12.5,7.66 -5.31,1.559 -10.47,2.071 -15.47,1.559 v 10.473 h 97.5 v -10.473 c -9.29,0 -16.99,-0.629 -23.12,-1.879 -6.17,-1.172 -8.83,-3.59 -7.97,-7.34 l 40.78,-192.34 84.84,215.622 h 11.57 l 78.43,-217.973 52.35,193.91 c 0.82,3.199 -2.74,5.66 -10.63,7.34 -7.81,1.762 -15.47,2.66 -22.97,2.66 v 10.473 z" /><path
         id="path46"
         style="fill:#1a6735;fill-opacity:1;fill-rule:nonzero;stroke:none"
         d="m 2261.48,121.91 v -9.211 h -57.96 v 32.813 c -11.49,-10.633 -20.79,-18.403 -27.97,-23.282 -11.8,-7.742 -22.89,-11.57 -33.28,-11.57 -14.93,0 -27.15,3.32 -36.72,10 -10.94,7.5 -16.41,18.602 -16.41,33.289 0,18.121 6.13,32.653 18.44,43.59 9.76,8.75 24.3,15.512 43.59,20.313 10.63,2.699 28.05,5.668 52.35,8.91 v 21.867 c 0,5.941 -4.69,12.23 -14.07,18.91 -10.62,7.691 -21.95,11.563 -33.9,11.563 -11.49,0 -20.55,-3.204 -27.19,-9.532 -5.63,-5.429 -9.92,-13.441 -12.81,-24.058 l -11.25,2.34 1.56,23.277 c 9.06,5.82 16.41,10.199 22.03,13.133 17.38,9.058 31.91,13.59 43.59,13.59 16.57,0 31.29,-4.493 44.22,-13.442 12.89,-8.859 19.38,-18.238 19.38,-28.121 V 140.66 c 0,-5.621 1.6,-9.922 4.84,-12.808 4.26,-3.981 11.45,-5.942 21.56,-5.942 z m -63.12,32.352 c 1.02,1.636 2.11,3.359 3.28,5.148 1.25,1.879 1.88,3.988 1.88,6.41 v 46.09 c -20,0 -37.62,-3.859 -52.82,-11.558 -18.43,-9.372 -27.65,-22.461 -27.65,-39.223 0,-7.5 3.04,-14.328 9.22,-20.469 6.13,-6.172 13.04,-9.211 20.78,-9.211 8,0 15.78,1.949 23.28,5.93 7.5,4.07 14.84,9.691 22.03,16.883 z" /><path
         id="path48"
         style="fill:#1a6735;fill-opacity:1;fill-rule:nonzero;stroke:none"
         d="m 2508.75,121.91 v -9.211 h -64.84 v 125.153 c 0,10.699 -4.53,19.449 -13.6,26.25 -9.06,6.757 -19.49,10.16 -31.25,10.16 -11.99,0 -22.97,-3.602 -32.97,-10.782 -10,-7.191 -15,-16.531 -15,-27.968 V 137.07 c 0,-6.679 2.66,-11.05 7.97,-13.121 3.21,-1.371 8.99,-2.039 17.35,-2.039 2.89,0 5.15,0 6.71,0 v -9.211 h -97.18 v 9.211 c 7.18,0.199 12.5,0.711 15.94,1.57 10.7,2.379 16.09,6.641 16.09,12.809 v 124.063 c 0,3.949 -2.03,6.918 -6.09,8.91 -3.99,1.949 -8.87,2.968 -14.69,2.968 -4.3,0 -8.28,-0.39 -12.03,-1.101 v 10.32 c 21.56,3.199 42.5,8.43 62.81,15.621 l 3.12,-3.91 v -30.461 c 8.01,8 14.57,13.903 19.69,17.653 15.39,11.636 29.42,17.5 42.03,17.5 16.96,0 31.6,-4.141 43.91,-12.34 13.83,-9.383 20.78,-21.684 20.78,-36.883 V 134.262 c 0,-3.992 2.42,-7.032 7.34,-9.223 5,-2.109 12.97,-3.129 23.91,-3.129 z" /><path
         id="path50"
         style="fill:#1a6735;fill-opacity:1;fill-rule:nonzero;stroke:none"
         d="m 2748.44,124.262 v -11.563 h -65.63 v 34.371 c -9.61,-10.941 -20.47,-19.8 -32.65,-26.558 -12.11,-6.801 -24.65,-10.16 -37.66,-10.16 -23.98,0 -42.5,7.968 -55.62,23.91 -13.05,16.008 -19.54,38.668 -19.54,67.968 0,28.821 10.08,52.18 30.32,70 18.94,16.872 41.91,25.309 68.9,25.309 8.44,0 16.56,-1.059 24.38,-3.129 7.89,-1.988 15.19,-5.23 21.87,-9.68 v 77.18 c 0,5.629 -5.31,9.379 -15.93,11.25 -3.44,0.512 -8.76,0.86 -15.94,1.102 v 10.468 c 11.95,1.872 22.89,3.821 32.81,5.93 3.63,0.82 14.57,3.211 32.81,7.192 V 143.16 c 0,-7.5 3.01,-12.89 9.06,-16.09 4.26,-2.109 9.73,-3.121 16.41,-3.121 1.33,0 2.85,0 4.53,0 0.51,0 1.14,0.071 1.88,0.313 z m -116.72,10 c 14.06,0 26.09,5.078 36.09,15.308 10,10.309 15,22.539 15,36.719 v 64.063 c 0,5 -6.68,11.289 -20,18.91 -13.36,7.578 -25.31,11.398 -35.93,11.398 -17.62,-1.871 -31.8,-9.84 -42.5,-23.898 -10.63,-13.992 -15.94,-30.282 -15.94,-48.91 0,-20 5.47,-36.954 16.4,-50.782 11.96,-15.23 27.58,-22.808 46.88,-22.808 z" /><path
         id="path52"
         style="fill:#1a6735;fill-opacity:1;fill-rule:nonzero;stroke:none"
         d="m 2876.56,298.629 c 19.77,-2.418 35.94,-10.617 48.44,-24.68 11.45,-12.82 19.57,-29.929 24.38,-51.25 l -48.29,-17.187 h -86.87 c 0,-17.621 4.53,-33.871 13.59,-48.75 10.39,-17.114 23.32,-26.332 38.75,-27.66 1.88,-0.313 3.75,-0.473 5.63,-0.473 1.64,0 3.43,0 5.31,0 10.31,0 19.73,1.172 28.28,3.601 8.52,2.379 18.44,6.29 29.69,11.719 l 2.34,-3.289 c -3.75,-10.93 -11.21,-19.332 -22.34,-25.148 -9.92,-5.082 -21.8,-7.66 -35.63,-7.66 -29.61,0 -53.59,7.5 -72.03,22.5 -21.05,16.949 -31.56,41.488 -31.56,73.597 0,24.762 8.32,46.91 25,66.403 16.64,19.449 37.66,29.218 62.97,29.218 1.33,0 3.05,-0.121 5.16,-0.308 2.18,-0.121 4.57,-0.313 7.18,-0.633 z M 2815,220.66 h 96.88 c 0.19,2.391 0.31,4.11 0.31,5.16 0,14.141 -3.6,27.11 -10.78,38.91 -8.25,13.321 -18.52,20 -30.79,20 -20.85,0 -35.78,-6.57 -44.84,-19.691 C 2818.59,254.73 2815,239.922 2815,220.66 Z" /><path
         id="path54"
         style="fill:#1a6735;fill-opacity:1;fill-rule:nonzero;stroke:none"
         d="m 3064.22,121.91 v -9.211 h -95.16 v 10 c 2.89,-0.32 5.32,-0.469 7.19,-0.469 6.45,0 11.41,0.661 14.84,2.032 5.63,2.187 8.44,5.777 8.44,10.777 V 363.48 c 0,3.43 -2.3,6.008 -6.87,7.809 -4.5,1.762 -9.54,2.66 -15.16,2.66 -3.44,0 -6.02,-0.16 -7.66,-0.469 v 11.25 c 22.39,3.43 43.75,7.809 64.07,13.122 v -262.34 c 0,-6.172 5.04,-10.282 15.15,-12.352 3.21,-0.621 8.28,-1.051 15.16,-1.25 z" /><path
         id="path56"
         style="fill:#1a6735;fill-opacity:1;fill-rule:nonzero;stroke:none"
         d="m 3234.38,139.102 3.28,-6.872 c -2.93,-9.609 -11.64,-16.371 -26.1,-20.32 -9.8,-2.691 -21.68,-4.058 -35.62,-4.058 -25.55,0 -46.84,8.519 -63.91,25.628 -17.11,17.071 -25.62,38.161 -25.62,63.282 0,32.5 10.66,58.039 32.03,76.718 19.14,16.75 43.51,25.149 73.12,25.149 8.01,0 15.71,-0.93 23.13,-2.809 7.5,-1.8 15.15,-4.449 22.97,-7.968 l -4.85,-50 h -10.78 l -3.28,24.847 c -11.68,13 -25.12,19.531 -40.31,19.531 -18.44,0 -32.66,-6.718 -42.66,-20.16 -10,-13.441 -15,-30.16 -15,-50.16 0,-21.558 6.72,-40.859 20.16,-57.808 13.51,-16.993 30.31,-25.473 50.31,-25.473 15.94,0 30.31,3.48 43.13,10.473 z" /><path
         id="path58"
         style="fill:#1a6735;fill-opacity:1;fill-rule:nonzero;stroke:none"
         d="m 3359.69,298.629 c 27.26,0 49.29,-7.891 66.09,-23.59 18.63,-17.617 27.97,-42.66 27.97,-75.16 0,-23.43 -8.13,-44.367 -24.37,-62.809 -18.13,-20.55 -41.37,-30.781 -69.69,-30.781 -30.31,0 -54.18,10.16 -71.57,30.473 -14.92,17.258 -22.34,38.316 -22.34,63.117 0,33.133 9.06,58.172 27.19,75.16 16.56,15.699 38.79,23.59 66.72,23.59 z m 59.22,-98.75 c 0,20.512 -4.65,39.07 -13.91,55.633 -11.25,20 -26.37,30 -45.31,30 -18.13,0 -32.78,-9.922 -43.91,-29.692 -9.92,-17.3 -14.84,-35.941 -14.84,-55.941 0,-28.238 5.62,-49.18 16.87,-62.809 10.08,-12.3 24.07,-18.441 41.88,-18.441 17.89,0 31.91,6.019 42.03,18.133 11.44,13.508 17.19,34.566 17.19,63.117 z" /><path
         id="path60"
         style="fill:#1a6735;fill-opacity:1;fill-rule:nonzero;stroke:none"
         d="m 3655.62,121.91 v -9.211 h -57.96 v 32.813 c -11.49,-10.633 -20.78,-18.403 -27.97,-23.282 -11.8,-7.742 -22.89,-11.57 -33.28,-11.57 -14.93,0 -27.15,3.32 -36.72,10 -10.94,7.5 -16.41,18.602 -16.41,33.289 0,18.121 6.13,32.653 18.44,43.59 9.76,8.75 24.3,15.512 43.59,20.313 10.63,2.699 28.05,5.668 52.35,8.91 v 21.867 c 0,5.941 -4.69,12.23 -14.07,18.91 -10.62,7.691 -21.95,11.563 -33.9,11.563 -11.49,0 -20.55,-3.204 -27.19,-9.532 -5.62,-5.429 -9.92,-13.441 -12.81,-24.058 l -11.25,2.34 1.56,23.277 c 9.06,5.82 16.41,10.199 22.03,13.133 17.38,9.058 31.92,13.59 43.59,13.59 16.57,0 31.29,-4.493 44.22,-13.442 12.89,-8.859 19.38,-18.238 19.38,-28.121 V 140.66 c 0,-5.621 1.6,-9.922 4.84,-12.808 4.26,-3.981 11.45,-5.942 21.56,-5.942 z m -63.12,32.352 c 1.02,1.636 2.11,3.359 3.28,5.148 1.25,1.879 1.88,3.988 1.88,6.41 v 46.09 c -20,0 -37.62,-3.859 -52.82,-11.558 -18.43,-9.372 -27.65,-22.461 -27.65,-39.223 0,-7.5 3.04,-14.328 9.22,-20.469 6.13,-6.172 13.04,-9.211 20.78,-9.211 8.01,0 15.78,1.949 23.28,5.93 7.5,4.07 14.84,9.691 22.03,16.883 z" /><path
         id="path62"
         style="fill:#1a6735;fill-opacity:1;fill-rule:nonzero;stroke:none"
         d="m 3831.25,139.102 3.28,-6.872 c -2.93,-9.609 -11.64,-16.371 -26.09,-20.32 -9.81,-2.691 -21.68,-4.058 -35.63,-4.058 -25.54,0 -46.83,8.519 -63.9,25.628 -17.11,17.071 -25.63,38.161 -25.63,63.282 0,32.5 10.67,58.039 32.03,76.718 19.14,16.75 43.52,25.149 73.13,25.149 8.01,0 15.7,-0.93 23.12,-2.809 7.5,-1.8 15.16,-4.449 22.97,-7.968 l -4.84,-50 h -10.78 l -3.29,24.847 c -11.67,13 -25.11,19.531 -40.31,19.531 -18.43,0 -32.65,-6.718 -42.65,-20.16 -10,-13.441 -15,-30.16 -15,-50.16 0,-21.558 6.72,-40.859 20.15,-57.808 13.52,-16.993 30.31,-25.473 50.31,-25.473 15.94,0 30.32,3.48 43.13,10.473 z" /><path
         id="path64"
         style="fill:#1a6735;fill-opacity:1;fill-rule:nonzero;stroke:none"
         d="m 4075.78,123.48 v -10.781 h -61.56 V 237.07 c 0,10.391 -4.49,19.059 -13.44,25.942 -8.87,6.949 -18.75,10.468 -29.69,10.468 -11.79,0 -23.12,-3.992 -34.06,-11.878 -10.94,-7.813 -16.41,-16.801 -16.41,-26.872 v -99.218 c 0,-5.121 5.04,-8.871 15.16,-11.25 3.2,-0.742 8.32,-1.532 15.31,-2.352 v -9.211 h -95.62 v 9.211 c 6.87,0 12.07,0.238 15.62,0.789 10.63,1.871 15.94,5.699 15.94,11.563 V 361.91 c 0,4.77 -1.83,8.289 -5.47,10.469 -3.55,2.269 -8.12,3.441 -13.75,3.441 -1.87,0 -3.86,-0.121 -5.93,-0.308 -0.86,0 -2.97,-0.434 -6.41,-1.25 v 10.468 c 10.62,1.008 21.41,2.731 32.34,5.149 5.31,1.019 16.25,3.672 32.81,7.973 V 261.91 c 10.94,10.942 19.89,18.789 26.88,23.602 11.13,7.687 22.19,11.558 33.12,11.558 16.26,0 30.79,-3.871 43.6,-11.558 15.19,-9.063 22.81,-21.371 22.81,-36.883 V 135.512 c 0,-5.633 4.77,-9.141 14.38,-10.473 4.76,-0.551 9.57,-1.059 14.37,-1.559 z" /><path
         id="path66"
         style="fill:#1a6735;fill-opacity:1;fill-rule:nonzero;stroke:none"
         d="m 4144.84,382.699 c 5.82,0 10.71,-2.148 14.69,-6.41 4.06,-4.301 6.09,-9.609 6.09,-15.937 0,-5.942 -2.14,-10.903 -6.4,-14.84 -4.3,-3.992 -9.49,-5.942 -15.63,-5.942 -6.17,0 -11.25,2.071 -15.31,6.25 -3.98,4.258 -5.94,9.61 -5.94,16.09 0,5.82 2.11,10.711 6.41,14.692 4.26,4.058 9.61,6.097 16.09,6.097 z m 47.5,-260.789 v -9.211 H 4100 v 9.211 c 1.88,0 3.32,0 4.38,0 6.32,0 12.07,0.629 17.18,1.879 5.08,1.332 7.66,4.141 7.66,8.441 v 122.032 c 0,6.129 -2.11,10.508 -6.25,13.117 -4.18,2.699 -9.69,4.07 -16.56,4.07 -1.88,0 -4.69,-0.277 -8.44,-0.789 v 10 c 10.62,1.641 21.25,3.789 31.87,6.41 10.71,2.7 21.18,6.02 31.41,10 l 3.13,-3.91 V 131.91 c 0,-4.801 3.32,-7.89 10,-9.211 2.69,-0.551 8.67,-0.789 17.96,-0.789 z" /><path
         id="path68"
         style="fill:#1a6735;fill-opacity:1;fill-rule:nonzero;stroke:none"
         d="m 4433.75,121.91 v -9.211 h -64.84 v 125.153 c 0,10.699 -4.53,19.449 -13.6,26.25 -9.06,6.757 -19.49,10.16 -31.25,10.16 -11.99,0 -22.97,-3.602 -32.97,-10.782 -10,-7.191 -15,-16.531 -15,-27.968 V 137.07 c 0,-6.679 2.66,-11.05 7.97,-13.121 3.21,-1.371 8.99,-2.039 17.35,-2.039 2.89,0 5.15,0 6.71,0 v -9.211 h -97.18 v 9.211 c 7.18,0.199 12.5,0.711 15.94,1.57 10.7,2.379 16.09,6.641 16.09,12.809 v 124.063 c 0,3.949 -2.03,6.918 -6.09,8.91 -3.99,1.949 -8.87,2.968 -14.69,2.968 -4.3,0 -8.28,-0.39 -12.03,-1.101 v 10.32 c 21.56,3.199 42.5,8.43 62.81,15.621 l 3.12,-3.91 v -30.461 c 8.01,8 14.57,13.903 19.69,17.653 15.39,11.636 29.42,17.5 42.03,17.5 16.96,0 31.6,-4.141 43.91,-12.34 13.83,-9.383 20.78,-21.684 20.78,-36.883 V 134.262 c 0,-3.992 2.42,-7.032 7.34,-9.223 5,-2.109 12.97,-3.129 23.91,-3.129 z" /><path
         id="path70"
         style="fill:#1a6735;fill-opacity:1;fill-rule:nonzero;stroke:none"
         d="m 4602.66,282.23 h 51.56 l -7.5,-17.968 -32.5,-0.782 c 1.13,-2.621 1.95,-5.75 2.5,-9.378 0.51,-3.672 0.78,-7.032 0.78,-10.153 0,-24.07 -9.06,-41.961 -27.19,-53.597 -15.54,-10.231 -35.7,-15.313 -60.47,-15.313 -5,-2.418 -9.37,-5.738 -13.12,-10 -3.75,-4.301 -5.63,-8.91 -5.63,-13.91 0,-4.801 2.11,-8.508 6.41,-11.09 4.26,-2.5 9.45,-3.75 15.62,-3.75 h 74.69 c 12.58,0 22.7,-4.219 30.31,-12.66 7.58,-8.359 11.41,-18.629 11.41,-30.9298 0,-28.2109 -11.09,-50.789 -33.28,-67.6601 -20.23,-15.19926 -45.12,-22.80863 -74.69,-22.80863 -21.87,0 -40.31,4.96094 -55.31,14.83983 -17.11,11.25 -25.63,26.3281 -25.63,45.1602 0,15.7383 7.08,28.9804 21.26,39.6795 4.57,3.442 11.64,7.309 21.24,11.57 -16.56,2.891 -24.84,11.168 -24.84,24.84 0.51,6.328 4.3,13.051 11.41,20.16 7.07,7.071 15,12.848 23.75,17.34 -13.87,3.2 -25.08,9.61 -33.6,19.219 -8.55,9.691 -12.81,21.172 -12.81,34.531 0,21.25 9.22,38.668 27.66,52.34 16.76,12.5 36.33,18.75 58.75,18.75 8.83,0 17.54,-1.711 26.09,-5.148 6.64,-2.742 14.38,-7.153 23.13,-13.282 z m -57.97,-95.941 c 11.95,0 22.03,4.731 30.15,14.223 8.13,9.449 12.19,21.25 12.19,35.308 0,12.27 -3.59,23.129 -10.78,32.5 -8.24,10.942 -19.02,16.41 -32.34,16.41 -12,0 -22.35,-4.652 -31.1,-13.91 -8.67,-9.179 -12.97,-20 -12.97,-32.5 0,-12.808 3.75,-24.3 11.25,-34.371 8.52,-11.801 19.73,-17.66 33.6,-17.66 z M 4486.72,60.3516 c 1.87,-15.5118 8.9,-27.2618 21.09,-35.3125 10.94,-7.1875 24.57,-10.7774 40.94,-10.7774 15.94,0 30.66,4.4492 44.22,13.2774 13.63,8.75 22.07,20.4726 25.31,35.1601 0.82,3.75 1.25,7.6094 1.25,11.5625 0,9.3672 -1.64,16.8672 -4.84,22.5 -3.99,6.8673 -9.85,10.3083 -17.66,10.3083 h -77.19 c -9.8,0 -17.89,-4.14 -24.22,-12.4997 -6.24,-8.4414 -9.37,-18.3594 -9.37,-29.8398 0.31,-1.8789 0.47,-3.3203 0.47,-4.3789 z" /></g></g></svg>